<svg width="1280" height="720" viewBox="0 0 1280 720" xmlns="http://www.w3.org/2000/svg">
  <defs>
    <!-- Panel shadow -->
    <filter id="panelShadow">
      <feGaussianBlur in="SourceAlpha" stdDeviation="6"/>
      <feOffset dx="0" dy="3" result="offsetblur"/>
      <feComponentTransfer>
        <feFuncA type="linear" slope="0.2"/>
      </feComponentTransfer>
      <feMerge>
        <feMergeNode/>
        <feMergeNode in="SourceGraphic"/>
      </feMerge>
    </filter>
  </defs>

  <!-- Background -->
  <rect width="1280" height="720" fill="#0a0a0a"/>

  <!-- Main title -->
  <text x="40" y="50" font-family="Inter, sans-serif" font-size="20" font-weight="700" fill="#e5e5e5">Scraper Configuration & Output Preview</text>
  <text x="40" y="75" font-family="Inter, sans-serif" font-size="13" fill="#888">Configure your scraping targets and preview collected data</text>

  <!-- Left panel: Settings -->
  <g transform="translate(40, 110)">
    <rect x="0" y="0" width="580" height="570" rx="12" fill="#1a1a1a" stroke="#2a2a2a" stroke-width="2" filter="url(#panelShadow)"/>

    <!-- Panel header -->
    <text x="24" y="35" font-family="Inter, sans-serif" font-size="16" font-weight="600" fill="#e5e5e5">Configuration</text>
    <line x1="24" y1="50" x2="556" y2="50" stroke="#2a2a2a" stroke-width="1"/>

    <!-- Form section 1: Target Profiles -->
    <text x="24" y="85" font-family="Inter, sans-serif" font-size="12" font-weight="600" fill="#aaa">TARGET PROFILES</text>

    <!-- Platform selector -->
    <text x="24" y="115" font-family="Inter, sans-serif" font-size="11" fill="#999">Platforms</text>
    <rect x="24" y="125" width="532" height="40" rx="6" fill="#0a0a0a" stroke="#333" stroke-width="1"/>

    <!-- Platform checkboxes -->
    <g transform="translate(40, 138)">
      <rect x="0" y="0" width="14" height="14" rx="2" fill="#00FFFF" stroke="#00FFFF" stroke-width="2"/>
      <path d="M 3,7 L 6,10 L 11,3" stroke="#0a0a0a" stroke-width="2" fill="none" stroke-linecap="round" stroke-linejoin="round"/>
      <text x="20" y="11" font-family="Inter, sans-serif" font-size="11" fill="#e5e5e5">LinkedIn</text>
    </g>
    <g transform="translate(140, 138)">
      <rect x="0" y="0" width="14" height="14" rx="2" fill="#00FFFF" stroke="#00FFFF" stroke-width="2"/>
      <path d="M 3,7 L 6,10 L 11,3" stroke="#0a0a0a" stroke-width="2" fill="none" stroke-linecap="round" stroke-linejoin="round"/>
      <text x="20" y="11" font-family="Inter, sans-serif" font-size="11" fill="#e5e5e5">Twitter</text>
    </g>
    <g transform="translate(235, 138)">
      <rect x="0" y="0" width="14" height="14" rx="2" fill="#00FFFF" stroke="#00FFFF" stroke-width="2"/>
      <path d="M 3,7 L 6,10 L 11,3" stroke="#0a0a0a" stroke-width="2" fill="none" stroke-linecap="round" stroke-linejoin="round"/>
      <text x="20" y="11" font-family="Inter, sans-serif" font-size="11" fill="#e5e5e5">Instagram</text>
    </g>
    <g transform="translate(345, 138)">
      <rect x="0" y="0" width="14" height="14" rx="2" fill="#222" stroke="#444" stroke-width="1"/>
      <text x="20" y="11" font-family="Inter, sans-serif" font-size="11" fill="#666">Facebook</text>
    </g>
    <g transform="translate(445, 138)">
      <rect x="0" y="0" width="14" height="14" rx="2" fill="#00FFFF" stroke="#00FFFF" stroke-width="2"/>
      <path d="M 3,7 L 6,10 L 11,3" stroke="#0a0a0a" stroke-width="2" fill="none" stroke-linecap="round" stroke-linejoin="round"/>
      <text x="20" y="11" font-family="Inter, sans-serif" font-size="11" fill="#e5e5e5">TikTok</text>
    </g>

    <!-- Profile URLs -->
    <text x="24" y="195" font-family="Inter, sans-serif" font-size="11" fill="#999">Profile URLs (one per line)</text>
    <rect x="24" y="205" width="532" height="100" rx="6" fill="#0a0a0a" stroke="#00FFFF" stroke-width="2"/>
    <text x="36" y="225" font-family="Inter, sans-serif" font-size="10" fill="#00FFFF" font-family="monospace">linkedin.com/in/tech-influencer</text>
    <text x="36" y="245" font-family="Inter, sans-serif" font-size="10" fill="#00FFFF" font-family="monospace">twitter.com/saas_founder</text>
    <text x="36" y="265" font-family="Inter, sans-serif" font-size="10" fill="#00FFFF" font-family="monospace">instagram.com/digital_marketer</text>
    <text x="36" y="285" font-family="Inter, sans-serif" font-size="10" fill="#666" font-family="monospace">tiktok.com/@content_creator</text>

    <!-- Form section 2: Schedule -->
    <text x="24" y="340" font-family="Inter, sans-serif" font-size="12" font-weight="600" fill="#aaa">SCHEDULE</text>

    <text x="24" y="370" font-family="Inter, sans-serif" font-size="11" fill="#999">Frequency</text>
    <rect x="24" y="380" width="255" height="40" rx="6" fill="#0a0a0a" stroke="#333" stroke-width="1"/>
    <text x="36" y="405" font-family="Inter, sans-serif" font-size="11" fill="#e5e5e5">Daily</text>
    <polygon points="265,400 270,405 265,410" fill="#666"/>

    <text x="301" y="370" font-family="Inter, sans-serif" font-size="11" fill="#999">Time</text>
    <rect x="301" y="380" width="255" height="40" rx="6" fill="#0a0a0a" stroke="#333" stroke-width="1"/>
    <text x="313" y="405" font-family="Inter, sans-serif" font-size="11" fill="#e5e5e5">09:00 AM UTC</text>
    <polygon points="542,400 547,405 542,410" fill="#666"/>

    <!-- Form section 3: Output Format -->
    <text x="24" y="455" font-family="Inter, sans-serif" font-size="12" font-weight="600" fill="#aaa">OUTPUT FORMAT</text>

    <text x="24" y="485" font-family="Inter, sans-serif" font-size="11" fill="#999">Export to</text>
    <rect x="24" y="495" width="255" height="40" rx="6" fill="#0a0a0a" stroke="#333" stroke-width="1"/>
    <text x="36" y="520" font-family="Inter, sans-serif" font-size="11" fill="#e5e5e5">Google Sheets + Airtable</text>
    <polygon points="265,515 270,520 265,525" fill="#666"/>

    <text x="301" y="485" font-family="Inter, sans-serif" font-size="11" fill="#999">Data retention</text>
    <rect x="301" y="495" width="255" height="40" rx="6" fill="#0a0a0a" stroke="#333" stroke-width="1"/>
    <text x="313" y="520" font-family="Inter, sans-serif" font-size="11" fill="#e5e5e5">90 days</text>
    <polygon points="542,515 547,520 542,525" fill="#666"/>
  </g>

  <!-- Right panel: Data Preview -->
  <g transform="translate(660, 110)">
    <rect x="0" y="0" width="580" height="570" rx="12" fill="#1a1a1a" stroke="#2a2a2a" stroke-width="2" filter="url(#panelShadow)"/>

    <!-- Panel header -->
    <text x="24" y="35" font-family="Inter, sans-serif" font-size="16" font-weight="600" fill="#e5e5e5">Output Preview</text>
    <text x="430" y="35" font-family="Inter, sans-serif" font-size="11" fill="#666">Last updated: 2 hours ago</text>
    <line x1="24" y1="50" x2="556" y2="50" stroke="#2a2a2a" stroke-width="1"/>

    <!-- Table header -->
    <rect x="24" y="70" width="532" height="40" rx="6" fill="#0a0a0a"/>
    <text x="36" y="93" font-family="Inter, sans-serif" font-size="10" font-weight="600" fill="#00FFFF">PLATFORM</text>
    <text x="136" y="93" font-family="Inter, sans-serif" font-size="10" font-weight="600" fill="#00FFFF">HANDLE</text>
    <text x="286" y="93" font-family="Inter, sans-serif" font-size="10" font-weight="600" fill="#00FFFF">FOLLOWERS</text>
    <text x="386" y="93" font-family="Inter, sans-serif" font-size="10" font-weight="600" fill="#00FFFF">POSTS</text>
    <text x="466" y="93" font-family="Inter, sans-serif" font-size="10" font-weight="600" fill="#00FFFF">ENGAGEMENT</text>

    <!-- Table rows -->
    <!-- Row 1 -->
    <rect x="24" y="120" width="532" height="60" rx="6" fill="#111"/>
    <circle cx="46" cy="150" r="6" fill="#0077b5"/>
    <text x="60" y="145" font-family="Inter, sans-serif" font-size="10" fill="#999">LinkedIn</text>
    <text x="60" y="160" font-family="Inter, sans-serif" font-size="9" fill="#666">Verified</text>
    <text x="136" y="153" font-family="Inter, sans-serif" font-size="11" fill="#e5e5e5">@tech_influencer</text>
    <text x="286" y="153" font-family="Inter, sans-serif" font-size="11" fill="#e5e5e5">47.2K</text>
    <text x="386" y="153" font-family="Inter, sans-serif" font-size="11" fill="#e5e5e5">342</text>
    <rect x="466" y="142" width="70" height="20" rx="4" fill="#4ade80" opacity="0.2"/>
    <text x="476" y="156" font-family="Inter, sans-serif" font-size="10" font-weight="600" fill="#4ade80">8.2%</text>

    <!-- Row 2 -->
    <rect x="24" y="190" width="532" height="60" rx="6" fill="#0f0f0f"/>
    <circle cx="46" cy="220" r="6" fill="#1DA1F2"/>
    <text x="60" y="215" font-family="Inter, sans-serif" font-size="10" fill="#999">Twitter</text>
    <text x="60" y="230" font-family="Inter, sans-serif" font-size="9" fill="#666">Verified</text>
    <text x="136" y="223" font-family="Inter, sans-serif" font-size="11" fill="#e5e5e5">@saas_founder</text>
    <text x="286" y="223" font-family="Inter, sans-serif" font-size="11" fill="#e5e5e5">124K</text>
    <text x="386" y="223" font-family="Inter, sans-serif" font-size="11" fill="#e5e5e5">1,247</text>
    <rect x="466" y="212" width="70" height="20" rx="4" fill="#4ade80" opacity="0.2"/>
    <text x="476" y="226" font-family="Inter, sans-serif" font-size="10" font-weight="600" fill="#4ade80">12.4%</text>

    <!-- Row 3 -->
    <rect x="24" y="260" width="532" height="60" rx="6" fill="#111"/>
    <circle cx="46" cy="290" r="6" fill="#E4405F"/>
    <text x="60" y="285" font-family="Inter, sans-serif" font-size="10" fill="#999">Instagram</text>
    <text x="136" y="293" font-family="Inter, sans-serif" font-size="11" fill="#e5e5e5">@digital_marketer</text>
    <text x="286" y="293" font-family="Inter, sans-serif" font-size="11" fill="#e5e5e5">89.5K</text>
    <text x="386" y="293" font-family="Inter, sans-serif" font-size="11" fill="#e5e5e5">523</text>
    <rect x="466" y="282" width="70" height="20" rx="4" fill="#fbbf24" opacity="0.2"/>
    <text x="476" y="296" font-family="Inter, sans-serif" font-size="10" font-weight="600" fill="#fbbf24">5.7%</text>

    <!-- Row 4 -->
    <rect x="24" y="330" width="532" height="60" rx="6" fill="#0f0f0f"/>
    <circle cx="46" cy="360" r="6" fill="#00f2ea"/>
    <text x="60" y="355" font-family="Inter, sans-serif" font-size="10" fill="#999">TikTok</text>
    <text x="60" y="370" font-family="Inter, sans-serif" font-size="9" fill="#666">Creator</text>
    <text x="136" y="363" font-family="Inter, sans-serif" font-size="11" fill="#e5e5e5">@content_creator</text>
    <text x="286" y="363" font-family="Inter, sans-serif" font-size="11" fill="#e5e5e5">312K</text>
    <text x="386" y="363" font-family="Inter, sans-serif" font-size="11" fill="#e5e5e5">2,891</text>
    <rect x="466" y="352" width="70" height="20" rx="4" fill="#4ade80" opacity="0.2"/>
    <text x="476" y="366" font-family="Inter, sans-serif" font-size="10" font-weight="600" fill="#4ade80">15.8%</text>

    <!-- Row 5 -->
    <rect x="24" y="400" width="532" height="60" rx="6" fill="#111"/>
    <circle cx="46" cy="430" r="6" fill="#0077b5"/>
    <text x="60" y="425" font-family="Inter, sans-serif" font-size="10" fill="#999">LinkedIn</text>
    <text x="136" y="433" font-family="Inter, sans-serif" font-size="11" fill="#e5e5e5">@b2b_specialist</text>
    <text x="286" y="433" font-family="Inter, sans-serif" font-size="11" fill="#e5e5e5">23.1K</text>
    <text x="386" y="433" font-family="Inter, sans-serif" font-size="11" fill="#e5e5e5">187</text>
    <rect x="466" y="422" width="70" height="20" rx="4" fill="#fbbf24" opacity="0.2"/>
    <text x="476" y="436" font-family="Inter, sans-serif" font-size="10" font-weight="600" fill="#fbbf24">6.3%</text>

    <!-- Stats footer -->
    <rect x="24" y="480" width="532" height="60" rx="6" fill="#0a0a0a"/>
    <text x="36" y="505" font-family="Inter, sans-serif" font-size="10" fill="#666">Total Profiles:</text>
    <text x="36" y="522" font-family="Inter, sans-serif" font-size="14" font-weight="600" fill="#00FFFF">147</text>

    <text x="186" y="505" font-family="Inter, sans-serif" font-size="10" fill="#666">Total Followers:</text>
    <text x="186" y="522" font-family="Inter, sans-serif" font-size="14" font-weight="600" fill="#00FFFF">8.2M</text>

    <text x="356" y="505" font-family="Inter, sans-serif" font-size="10" fill="#666">Avg. Engagement:</text>
    <text x="356" y="522" font-family="Inter, sans-serif" font-size="14" font-weight="600" fill="#4ade80">9.8%</text>
  </g>
</svg>
